<svg width="1442" height="1244" viewBox="0 0 1442 1244" fill="none" xmlns="http://www.w3.org/2000/svg">
<path d="M220.754 595.508C89.2134 521.27 263.683 402.403 295.705 304.41C327.727 206.417 29.0201 140.422 166.115 74.4262C440.305 -32.1861 110.547 7.05498 0 7.05498V1022.57C0 1083.52 95.0659 1224.63 276.192 1240.47C584.906 1267.47 793.211 1137.36 847.396 928.837C901.581 720.319 895.662 575.458 1105.28 575.458C1262.31 575.458 1393.09 736.526 1441.43 928.837V484.733C1447.28 474.207 1410.82 433.004 1218.16 352.404C977.34 251.654 869.471 357.416 869.471 453.154C869.471 560.922 788.046 639.505 633.94 685.008C523.062 717.747 383.766 687.508 220.754 595.508Z" fill="#313535"/>
</svg>
