<svg width="1442" height="1237" viewBox="0 0 1442 1237" fill="none" xmlns="http://www.w3.org/2000/svg">
<path d="M1221.25 588.48C1352.79 514.238 1183.82 327.935 1146.29 297.369C1108.77 266.802 1003.2 110.381 1221.25 89.9411C1503.94 63.4415 1331.45 0 1442 0V1015.56C1442 1076.51 1346.93 1217.63 1165.81 1233.47C857.094 1260.47 648.789 1130.35 594.604 921.823C540.419 713.296 546.338 568.429 336.723 568.429C179.686 568.429 48.906 729.503 0.574219 921.823V477.699C-5.27917 467.173 31.1788 425.968 223.837 345.364C464.66 244.61 572.529 350.377 572.529 446.119C572.529 553.892 653.954 632.479 808.06 677.984C918.938 710.724 1058.23 680.484 1221.25 588.48Z" fill="#455148"/>
</svg>
