<svg width="1441" height="1238" viewBox="0 0 1441 1238" fill="none" xmlns="http://www.w3.org/2000/svg">
<path d="M220.601 588.495C89.1515 514.251 258 327.943 295.5 297.376C333 266.809 438.5 110.384 220.601 89.9434C-61.8987 63.4431 110.47 0 0 0V1015.59C0 1076.54 95 1217.66 276 1233.5C584.5 1260.5 792.661 1130.38 846.808 921.847C900.956 713.314 895.041 568.444 1104.51 568.444C1261.44 568.444 1392.13 729.522 1440.43 921.847V477.712C1446.28 467.185 1409.84 425.979 1217.32 345.373C976.662 244.616 868.868 350.386 868.868 446.131C868.868 553.906 787.5 632.495 633.5 678.001C522.7 710.742 383.5 680.501 220.601 588.495Z" fill="black"/>
</svg>
